<?xml version="1.0" standalone="no"?>
<!DOCTYPE svg PUBLIC "-//W3C//DTD SVG 20010904//EN"
 "http://www.w3.org/TR/2001/REC-SVG-20010904/DTD/svg10.dtd">
<svg version="1.0" xmlns="http://www.w3.org/2000/svg"
 width="255.000000pt" height="255.000000pt" viewBox="0 0 255.000000 255.000000"
 preserveAspectRatio="xMidYMid meet">
<metadata>
Created by potrace 1.11, written by Peter Selinger 2001-2013
</metadata>
<g transform="translate(0.000000,255.000000) scale(0.100000,-0.100000)"
fill="#000000" stroke="none">
<path d="M1360 2453 c0 -5 21 -27 48 -49 41 -36 87 -108 108 -169 11 -32 8
-97 -5 -137 -19 -56 -100 -211 -119 -225 -9 -7 -12 -13 -7 -13 5 0 -25 -33
-66 -72 -84 -82 -107 -101 -132 -111 -9 -3 -17 -11 -17 -17 0 -5 -6 -10 -14
-10 -8 0 -21 -8 -28 -17 -7 -10 -39 -38 -71 -62 -31 -24 -75 -61 -97 -82 -22
-22 -40 -37 -40 -34 0 5 -34 -26 -164 -152 -59 -56 -106 -104 -106 -107 0 -3
-21 -35 -47 -73 -26 -37 -49 -72 -50 -78 -9 -40 -56 -161 -65 -166 -6 -4 -8
-11 -4 -17 3 -6 2 -13 -4 -17 -6 -4 -9 -22 -7 -41 3 -19 1 -37 -4 -40 -7 -4
-6 -160 3 -239 8 -77 132 -244 230 -311 24 -16 46 -33 49 -37 3 -4 10 -7 15
-6 5 1 32 -8 59 -21 28 -12 57 -22 65 -22 8 0 22 -2 30 -5 8 -3 22 -8 30 -11
29 -11 285 -2 285 9 0 1 14 3 30 4 17 1 43 7 58 14 16 6 32 11 37 11 5 0 21 5
37 12 15 6 30 12 33 12 10 2 76 50 95 70 61 63 68 96 31 155 -14 21 -23 41
-20 44 13 13 -92 60 -131 58 -15 -1 -127 -10 -145 -12 -20 -3 -112 -98 -105
-110 4 -5 1 -9 -5 -9 -19 0 -6 -42 17 -58 22 -14 23 -14 17 16 -5 23 -1 33 17
46 13 9 31 16 41 16 10 0 18 4 18 9 0 13 37 5 66 -14 64 -42 24 -130 -84 -184
-23 -12 -47 -19 -52 -16 -5 3 -11 1 -15 -5 -4 -6 -10 -8 -15 -5 -5 3 -11 1
-15 -5 -3 -5 -38 -10 -78 -10 -112 -1 -130 0 -142 10 -7 5 -15 7 -18 4 -3 -4
-14 -3 -24 1 -10 5 -20 9 -23 10 -25 7 -110 52 -129 69 -64 58 -114 115 -131
151 -8 17 -19 33 -25 37 -5 4 -7 8 -3 8 4 0 -2 19 -14 41 -14 27 -22 60 -22
93 0 57 10 168 18 206 3 14 7 33 9 42 2 10 15 36 30 59 15 22 27 44 27 49 0 4
7 10 15 14 8 3 15 12 15 20 0 16 89 109 135 141 16 11 43 32 60 46 38 32 108
75 118 71 4 -1 7 3 7 9 0 5 5 7 10 4 6 -3 10 -1 10 4 0 6 4 11 10 11 5 0 31
13 57 28 27 16 54 27 61 24 6 -2 12 1 12 8 0 6 6 10 13 9 6 -1 25 3 40 9 16 7
38 12 50 12 12 0 40 5 62 12 22 6 44 11 49 9 4 -1 14 3 20 9 7 5 17 6 22 2 5
-4 0 4 -12 18 -38 46 -51 74 -43 90 4 8 16 33 25 54 10 21 26 41 36 44 10 2
18 8 18 13 0 5 3 8 8 7 4 0 15 2 25 6 9 5 25 5 35 0 9 -4 24 -8 32 -8 8 -1 19
-11 25 -23 5 -13 13 -23 17 -23 4 0 3 -12 -2 -26 -13 -32 -13 -34 3 -34 17 0
87 74 87 93 0 8 4 17 8 19 10 4 58 103 72 151 6 20 15 37 18 37 7 0 9 13 14
128 2 39 1 73 -2 75 -3 1 -14 38 -23 82 -10 47 -24 85 -34 93 -9 6 -13 12 -9
12 14 0 -55 83 -122 147 -36 35 -80 68 -98 75 -19 7 -34 16 -34 20 0 4 -9 8
-20 8 -11 0 -20 5 -20 10 0 6 -7 10 -15 10 -8 0 -15 -3 -15 -7z"/>
<path d="M1260 2438 c0 -6 3 -8 6 -5 4 3 16 -5 27 -20 l21 -26 -23 -43 c-15
-27 -28 -41 -37 -37 -8 3 -14 1 -14 -3 0 -9 -46 -33 -73 -38 -6 -2 -30 -11
-52 -21 -22 -9 -49 -19 -60 -20 -33 -5 -64 -13 -74 -19 -5 -3 -30 -8 -57 -11
-26 -4 -84 -15 -128 -26 -45 -11 -87 -21 -93 -21 -7 -1 -13 -5 -13 -10 0 -5
-6 -8 -12 -7 -7 1 -26 -3 -41 -9 -16 -7 -33 -10 -38 -6 -5 3 -9 1 -9 -5 0 -5
-10 -13 -22 -17 -13 -3 -31 -13 -40 -22 -10 -8 -18 -12 -18 -8 0 4 -26 -11
-57 -32 -32 -22 -61 -40 -66 -40 -8 -2 -106 -99 -107 -107 0 -3 -9 -21 -20
-40 -16 -28 -42 -114 -65 -215 -2 -8 -4 -16 -5 -17 -2 -2 -3 -11 -4 -20 -8
-67 -100 -278 -117 -267 -5 3 -9 -1 -9 -10 0 -35 82 20 101 68 7 17 19 37 26
44 7 8 11 18 8 22 -3 5 20 35 51 67 31 32 62 70 70 84 7 15 27 41 44 57 33 33
140 102 159 102 6 0 11 4 11 9 0 5 12 12 26 15 14 4 42 17 62 30 20 13 42 24
47 26 6 2 31 14 56 27 26 13 51 23 56 23 5 0 14 5 21 12 6 6 19 13 27 15 21 4
37 9 55 16 48 18 126 41 134 39 5 -2 12 2 16 8 4 6 14 12 22 13 22 4 128 61
128 70 0 4 7 7 15 7 8 0 15 5 15 10 0 6 5 10 11 10 5 0 24 13 42 30 18 16 36
30 40 30 5 0 5 5 2 10 -3 6 -1 10 4 10 6 0 17 16 25 35 8 19 19 35 23 35 7 0
11 22 17 100 2 32 -28 76 -64 95 -35 18 -50 19 -50 3z"/>
<path d="M2094 1868 c-4 -7 -2 -14 4 -16 30 -10 -1 -216 -34 -229 -8 -3 -12
-9 -9 -13 7 -11 -103 -110 -121 -110 -8 0 -14 -4 -14 -9 0 -8 -197 -109 -225
-116 -25 -5 -133 -53 -165 -71 -14 -9 -44 -24 -67 -35 -24 -11 -43 -24 -43
-29 0 -6 -3 -9 -7 -8 -10 3 -127 -72 -131 -84 -2 -4 -10 -8 -18 -8 -8 0 -14
-4 -14 -10 0 -5 -7 -10 -15 -10 -9 0 -27 -11 -41 -25 -14 -14 -29 -25 -33 -25
-12 0 -117 -104 -171 -168 -25 -30 -49 -59 -55 -66 -20 -23 -59 -108 -62 -134
-8 -73 -9 -158 -1 -168 5 -7 7 -16 6 -21 -11 -32 102 -182 159 -212 36 -18 36
-13 -2 20 -19 17 -32 35 -29 40 3 5 0 9 -6 9 -6 0 -18 16 -26 35 -8 19 -19 35
-25 35 -5 0 -7 5 -4 10 4 6 2 17 -4 24 -6 7 -9 22 -6 34 2 12 0 24 -4 27 -5 2
-8 29 -6 59 4 87 82 228 138 249 9 3 17 11 17 16 0 8 50 8 75 -1 15 -5 17 4
10 35 -4 15 -12 27 -17 27 -6 0 -7 8 -3 18 4 9 8 22 9 27 7 27 19 44 27 39 5
-3 9 -1 9 5 0 13 22 8 53 -12 18 -12 27 -26 27 -45 0 -22 18 -68 20 -52 1 3 3
25 4 50 2 25 5 52 8 62 8 33 67 118 82 118 8 0 16 5 18 11 2 7 25 12 51 13 43
1 49 -2 65 -29 12 -20 17 -49 16 -87 0 -32 2 -58 5 -58 9 1 51 70 51 84 0 7 3
16 7 19 3 4 7 17 9 30 1 12 14 47 29 77 20 41 39 63 77 88 27 18 58 34 69 35
10 1 19 5 19 9 0 6 23 5 62 -1 4 0 16 -10 26 -22 27 -29 22 -91 -13 -159 -16
-30 -28 -60 -27 -66 1 -6 -5 -17 -13 -24 -18 -15 -20 -30 -3 -30 6 0 9 2 6 5
-3 3 12 23 34 45 21 23 37 44 36 48 -1 4 11 33 27 65 36 75 125 164 172 173
44 8 111 -3 130 -22 15 -15 20 -74 8 -93 -3 -6 -8 -20 -10 -30 -5 -29 -79
-124 -123 -161 -13 -10 -22 -24 -20 -30 2 -6 12 -2 25 10 12 11 25 20 28 20 8
0 35 27 35 35 0 3 17 23 38 43 41 42 99 144 114 201 20 73 1 311 -24 311 -5 0
-7 4 -4 9 3 5 -1 14 -9 21 -7 6 -29 35 -47 63 -18 29 -43 62 -55 73 -13 12
-23 27 -23 33 0 7 -4 9 -10 6 -5 -3 -10 -2 -10 3 0 16 -48 33 -56 20z"/>
<path d="M2480 1016 c0 -9 -3 -16 -7 -16 -5 0 -16 -14 -25 -30 -9 -17 -30 -35
-45 -42 -15 -7 -41 -21 -58 -32 -16 -11 -36 -21 -43 -22 -8 -2 -21 -9 -30 -17
-26 -23 -154 -53 -247 -60 -22 -1 -44 -5 -50 -8 -5 -3 -99 -5 -207 -5 -109 1
-198 -1 -198 -5 0 -3 -17 -6 -37 -7 -38 -1 -159 -28 -177 -40 -6 -3 -25 -6
-43 -5 -18 0 -33 -4 -33 -9 0 -5 -4 -7 -9 -3 -5 3 -13 0 -16 -6 -4 -5 -13 -8
-21 -5 -8 3 -14 1 -14 -4 0 -5 -9 -12 -20 -15 -11 -4 -31 -16 -43 -28 -13 -12
-33 -28 -45 -36 -11 -8 -19 -18 -16 -23 3 -4 1 -8 -4 -8 -4 0 -19 -19 -32 -43
-30 -53 -32 -139 -4 -197 21 -43 82 -84 127 -86 40 -1 33 10 -23 35 -27 12
-52 31 -55 42 -4 10 -10 19 -14 19 -4 0 -8 6 -9 13 -9 60 -9 77 0 77 5 0 7 4
3 9 -3 5 -1 12 5 16 6 4 8 10 5 15 -7 12 102 109 131 116 13 3 24 10 24 15 0
5 3 8 8 8 4 -1 10 0 15 1 4 1 16 4 27 5 11 1 21 4 23 5 6 6 87 6 87 0 0 -20
30 -3 35 20 6 25 48 57 69 51 4 -1 13 2 20 8 17 14 69 10 89 -7 21 -19 22 -46
2 -66 -9 -9 -11 -17 -5 -21 13 -8 22 -2 80 47 59 49 161 71 192 40 19 -19 -9
-88 -57 -143 -41 -46 -57 -79 -37 -79 10 0 50 32 157 125 121 106 190 145 254
145 45 0 55 -13 42 -52 -6 -19 -22 -44 -34 -56 -12 -11 -35 -34 -51 -51 -16
-17 -34 -31 -40 -31 -6 -1 -22 -14 -36 -30 -13 -17 -29 -30 -35 -30 -15 -1
-50 -32 -64 -58 -15 -29 0 -28 36 1 27 23 49 34 67 35 5 0 13 7 18 16 5 9 16
16 25 16 9 0 31 12 50 26 19 14 37 24 39 21 5 -5 139 130 187 188 13 17 23 38
21 48 -1 9 2 17 7 17 6 0 8 4 5 9 -4 5 -1 11 5 13 6 2 16 36 22 76 6 40 15 72
19 72 12 0 10 28 -2 35 -5 3 -10 -1 -10 -9z"/>
</g>
</svg>
